<svg id="Ebene_1" data-name="Ebene 1" xmlns="http://www.w3.org/2000/svg" viewBox="0 0 27 47"><defs><style>.cls-1{fill:#fff;}</style></defs><path class="cls-1" d="M284,208.5c-1.9,0-3.5-2.37-3.5-5.17V167.67c0-2.8,1.6-5.17,3.5-5.17s3.5,2.37,3.5,5.17v35.66C287.5,206.13,285.9,208.5,284,208.5Z" transform="translate(-261 -162)"/><path d="M284,163c1.63,0,3,2.14,3,4.67v35.66c0,2.53-1.37,4.67-3,4.67s-3-2.14-3-4.67V167.67c0-2.53,1.37-4.67,3-4.67m0-1c-2.2,0-4,2.55-4,5.67v35.66c0,3.12,1.8,5.67,4,5.67s4-2.55,4-5.67V167.67c0-3.12-1.8-5.67-4-5.67Z" transform="translate(-261 -162)"/><path class="cls-1" d="M265,208.5c-1.9,0-3.5-2.37-3.5-5.17V167.67c0-2.8,1.6-5.17,3.5-5.17s3.5,2.37,3.5,5.17v35.66C268.5,206.13,266.9,208.5,265,208.5Z" transform="translate(-261 -162)"/><path d="M265,163c1.63,0,3,2.14,3,4.67v35.66c0,2.53-1.37,4.67-3,4.67s-3-2.14-3-4.67V167.67c0-2.53,1.37-4.67,3-4.67m0-1c-2.2,0-4,2.55-4,5.67v35.66c0,3.12,1.8,5.67,4,5.67s4-2.55,4-5.67V167.67c0-3.12-1.8-5.67-4-5.67Z" transform="translate(-261 -162)"/></svg>