<svg id="Ebene_1" data-name="Ebene 1" xmlns="http://www.w3.org/2000/svg" viewBox="0 0 42.26 47.26"><defs><style>.cls-1{fill:#fff;}</style></defs><path class="cls-1" d="M219.64,208.78c-2.21,0-3.59-1.82-3.59-4.75l0-36.76a5.33,5.33,0,0,1,1.27-3.84,3.21,3.21,0,0,1,2.32-.92,6.18,6.18,0,0,1,3,.93l31.86,18.35c1.8,1,2.79,2.39,2.79,3.82s-1,2.78-2.78,3.82l-31.82,18.41A6.24,6.24,0,0,1,219.64,208.78Z" transform="translate(-215.51 -162.01)"/><path d="M219.6,163h0a5.74,5.74,0,0,1,2.77.86l8.56,4.93,14.74,8.49,8.56,4.93c1.64.95,2.54,2.15,2.54,3.39s-.9,2.44-2.53,3.39l-8.55,4.94L231,202.46l-8.55,4.95a5.69,5.69,0,0,1-2.78.87c-1.93,0-3.09-1.59-3.09-4.25v-9.88l0-17v-9.87a5.17,5.17,0,0,1,.92-3.25,2.64,2.64,0,0,1,2.17-1m0-1c-2.42,0-4.09,1.93-4.09,5.26v9.87c0,4.68,0,12.34,0,17V204c0,3.32,1.67,5.25,4.09,5.25a6.76,6.76,0,0,0,3.28-1l8.55-4.95,14.72-8.52,8.55-4.95c4.05-2.34,4-6.17,0-8.5l-8.56-4.93-14.74-8.49L222.87,163a6.59,6.59,0,0,0-3.27-1Z" transform="translate(-215.51 -162.01)"/></svg>